<?xml version="1.0" encoding="UTF-8"?>
<svg id="Layer_2" data-name="Layer 2" xmlns="http://www.w3.org/2000/svg" viewBox="0 0 324.72 78">
  <defs>
    <style>
      .cls-1 {
        fill: #84796c;
      }

      .cls-2 {
        fill: #080e1c;
      }
    </style>
  </defs>
  <g id="Layer_1-2" data-name="Layer 1">
    <g>
      <path d="m111.89,45.18V14.71h6.14l9.54,19.46,9.54-19.46h6.1v30.48h-4.31v-24.86l-11.36,22.68-11.36-22.68v24.86h-4.27Z"/>
      <path d="m147.9,45.18V14.71h13.19c2,0,3.75.33,5.22,1,1.48.67,2.63,1.6,3.46,2.81.83,1.21,1.24,2.62,1.24,4.25,0,1.48-.39,2.79-1.15,3.92-.77,1.13-1.82,2.03-3.16,2.7,1.68.61,3.02,1.53,4.01,2.76.99,1.23,1.48,2.68,1.48,4.33,0,1.77-.44,3.31-1.31,4.62s-2.1,2.31-3.68,3.03c-1.58.71-3.42,1.07-5.51,1.07h-13.8Zm4.62-17.55h8.32c1.71,0,3.08-.41,4.09-1.22,1.02-.81,1.52-1.92,1.52-3.31s-.51-2.5-1.52-3.31c-1.02-.81-2.38-1.22-4.09-1.22h-8.32v9.06Zm0,13.67h8.84c1.89,0,3.39-.46,4.51-1.37,1.12-.91,1.68-2.13,1.68-3.64s-.56-2.71-1.68-3.61c-1.12-.9-2.62-1.35-4.51-1.35h-8.84v9.97Z"/>
      <path d="m183.17,45.18V14.71h10.75c2.32,0,4.46.38,6.4,1.15,1.95.77,3.64,1.84,5.07,3.2,1.44,1.36,2.56,2.98,3.37,4.83.81,1.86,1.22,3.89,1.22,6.1s-.4,4.19-1.2,6.03c-.8,1.84-1.92,3.45-3.37,4.81-1.45,1.36-3.15,2.43-5.09,3.2-1.94.77-4.08,1.15-6.4,1.15h-10.75Zm4.62-4.14h6.23c1.6,0,3.08-.28,4.44-.83,1.36-.55,2.56-1.33,3.59-2.33,1.03-1,1.83-2.18,2.39-3.53.57-1.35.85-2.81.85-4.38s-.28-3.07-.85-4.42c-.57-1.35-1.37-2.53-2.39-3.55-1.03-1.02-2.23-1.8-3.59-2.35-1.36-.55-2.84-.83-4.44-.83h-6.23v22.21Z"/>
      <path d="m213.34,45.18V14.71h22.51v4.01h-17.9v9.14h11.71v3.92h-11.71v9.4h18.07v4.01h-22.68Z"/>
      <path d="m251.87,45.66c-2.26,0-4.36-.4-6.29-1.2-1.93-.8-3.63-1.92-5.09-3.35-1.47-1.44-2.6-3.11-3.4-5.01-.8-1.9-1.2-3.96-1.2-6.16s.4-4.26,1.2-6.16c.8-1.9,1.93-3.57,3.4-5.01,1.46-1.44,3.17-2.55,5.12-3.35,1.94-.8,4.03-1.2,6.27-1.2,1.62,0,3.19.21,4.7.63,1.51.42,2.91,1.02,4.2,1.81,1.29.78,2.43,1.74,3.42,2.87l-3.09,3.13c-1.16-1.36-2.55-2.41-4.16-3.13-1.61-.73-3.3-1.09-5.07-1.09-1.63,0-3.12.29-4.48.87-1.37.58-2.55,1.39-3.57,2.44-1.02,1.04-1.81,2.26-2.4,3.64-.58,1.38-.87,2.9-.87,4.55s.29,3.13.87,4.53c.58,1.39,1.39,2.61,2.42,3.64s2.24,1.84,3.64,2.42,2.9.87,4.53.87c1.77,0,3.44-.35,5.01-1.07,1.57-.71,2.92-1.7,4.05-2.98l3,3.05c-.99,1.07-2.13,2.01-3.42,2.81-1.29.8-2.69,1.41-4.18,1.83-1.5.42-3.03.63-4.59.63Z"/>
      <path d="m280.96,45.66c-2.24,0-4.32-.4-6.25-1.2-1.93-.8-3.62-1.92-5.07-3.35-1.45-1.44-2.58-3.11-3.38-5.01-.8-1.9-1.2-3.96-1.2-6.16s.41-4.26,1.22-6.16c.81-1.9,1.94-3.57,3.4-5.01,1.45-1.44,3.13-2.55,5.05-3.35,1.92-.8,3.99-1.2,6.23-1.2s4.27.4,6.18,1.2c1.92.8,3.6,1.92,5.05,3.35,1.45,1.44,2.58,3.11,3.4,5.01.81,1.9,1.22,3.96,1.22,6.16s-.41,4.26-1.22,6.16c-.81,1.9-1.95,3.57-3.4,5.01-1.45,1.44-3.13,2.55-5.05,3.35-1.92.8-3.98,1.2-6.18,1.2Zm-.04-4.22c1.6,0,3.07-.29,4.42-.87,1.35-.58,2.53-1.39,3.55-2.44,1.02-1.04,1.81-2.27,2.37-3.68.57-1.41.85-2.91.85-4.51s-.28-3.17-.85-4.55c-.57-1.38-1.36-2.59-2.37-3.64-1.02-1.05-2.2-1.86-3.55-2.44-1.35-.58-2.81-.87-4.38-.87s-3.08.29-4.44.87c-1.36.58-2.55,1.39-3.55,2.44-1,1.04-1.79,2.26-2.37,3.66-.58,1.39-.87,2.9-.87,4.53s.29,3.13.87,4.53c.58,1.39,1.37,2.61,2.37,3.66,1,1.04,2.18,1.86,3.55,2.44,1.36.58,2.83.87,4.4.87Z"/>
      <path d="m300.16,45.18V14.71h13.85c2.03,0,3.81.38,5.33,1.13,1.52.76,2.71,1.81,3.55,3.16s1.26,2.94,1.26,4.77c0,1.97-.57,3.69-1.7,5.14-1.13,1.45-2.64,2.5-4.53,3.13l6.79,13.15h-5.14l-6.27-12.5h-8.53v12.5h-4.62Zm4.62-16.33h8.84c1.8,0,3.24-.46,4.31-1.37,1.07-.91,1.61-2.14,1.61-3.68s-.54-2.77-1.61-3.7c-1.07-.93-2.51-1.39-4.31-1.39h-8.84v10.15Z"/>
    </g>
    <g>
      <path class="cls-1" d="m115.5,69.18v-12.19h4.48c.92,0,1.77.15,2.54.46s1.46.74,2.04,1.29c.58.55,1.03,1.2,1.36,1.94s.49,1.55.49,2.42-.16,1.67-.49,2.41-.78,1.38-1.36,1.92c-.58.55-1.26.97-2.04,1.28s-1.63.46-2.54.46h-4.48Zm2.14-1.92h2.33c.59,0,1.14-.1,1.65-.31.51-.21.96-.5,1.34-.89.38-.38.68-.82.9-1.32.21-.5.32-1.04.32-1.64s-.11-1.14-.32-1.65c-.21-.51-.51-.96-.9-1.33-.38-.38-.83-.67-1.34-.89-.51-.21-1.06-.32-1.65-.32h-2.33v8.36Z"/>
      <path class="cls-1" d="m127.81,69.18v-12.19h9.16v1.88h-7.02v3.24h4.62v1.83h-4.62v3.36h7.09v1.88h-9.23Z"/>
      <path class="cls-1" d="m143.59,69.37c-.91,0-1.75-.16-2.53-.48-.78-.32-1.46-.77-2.05-1.34-.59-.57-1.04-1.24-1.37-2-.33-.76-.49-1.58-.49-2.46s.16-1.7.49-2.46c.32-.76.78-1.43,1.37-2,.59-.57,1.27-1.02,2.06-1.34.78-.32,1.62-.48,2.52-.48.65,0,1.29.09,1.91.26.62.17,1.2.42,1.72.75.53.33.98.72,1.37,1.18l-1.45,1.45c-.45-.55-.99-.96-1.6-1.24-.62-.28-1.27-.42-1.95-.42-.6,0-1.16.11-1.67.32-.51.21-.96.52-1.34.91-.38.39-.68.84-.9,1.37s-.32,1.09-.32,1.71.11,1.17.32,1.69.52.98.91,1.37c.39.39.84.69,1.37.91s1.09.32,1.71.32c.67,0,1.31-.14,1.91-.41.6-.27,1.11-.66,1.54-1.18l1.41,1.41c-.38.44-.84.83-1.37,1.16-.53.33-1.1.58-1.71.76-.61.17-1.23.26-1.85.26Z"/>
      <path class="cls-1" d="m155.38,69.37c-.89,0-1.73-.16-2.51-.48-.78-.32-1.46-.77-2.04-1.34s-1.03-1.24-1.36-2c-.33-.76-.49-1.58-.49-2.46s.16-1.7.49-2.46c.32-.76.78-1.43,1.37-2s1.27-1.02,2.04-1.34c.77-.32,1.61-.48,2.5-.48s1.73.16,2.5.48c.77.32,1.45.77,2.04,1.34.59.57,1.04,1.24,1.37,2,.32.76.49,1.58.49,2.46s-.16,1.7-.49,2.46c-.33.76-.78,1.43-1.37,2-.59.57-1.27,1.02-2.04,1.34-.77.32-1.61.48-2.5.48Zm0-1.99c.59,0,1.14-.11,1.65-.32.5-.21.95-.52,1.33-.91.38-.39.68-.85.89-1.38s.31-1.09.31-1.7-.1-1.18-.31-1.71-.5-.98-.89-1.37c-.38-.39-.83-.69-1.33-.91s-1.05-.32-1.65-.32-1.14.11-1.65.32c-.51.21-.96.52-1.33.91-.38.39-.67.84-.89,1.37s-.32,1.09-.32,1.71.11,1.17.32,1.7.51.99.89,1.38c.38.39.82.69,1.33.91.51.22,1.06.32,1.65.32Z"/>
      <path class="cls-1" d="m163.19,69.18v-12.19h5.71c.82,0,1.55.15,2.17.46s1.1.74,1.45,1.3c.34.56.51,1.2.51,1.93,0,.78-.22,1.46-.66,2.06-.44.59-1.03,1.02-1.78,1.29l2.7,5.16h-2.39l-2.46-4.84h-3.12v4.84h-2.14Zm2.14-6.62h3.4c.65,0,1.17-.17,1.56-.51.39-.34.58-.79.58-1.36s-.2-.99-.58-1.33-.91-.51-1.56-.51h-3.4v3.71Z"/>
      <path class="cls-1" d="m173.37,69.18l5.02-12.19h2.51l4.98,12.19h-2.33l-1.34-3.4h-5.26l-1.34,3.4h-2.23Zm4.27-5.16h3.9l-1.95-4.95-1.95,4.95Z"/>
      <path class="cls-1" d="m187.74,69.18v-10.28h-4.21v-1.92h10.57v1.92h-4.21v10.28h-2.14Z"/>
      <path class="cls-1" d="m195.14,69.18v-12.19h2.14v12.19h-2.14Z"/>
      <path class="cls-1" d="m199.22,69.18v-12.19h2.05l6.46,8.52v-8.52h2.04v12.19h-1.92l-6.62-8.78v8.78h-2.02Z"/>
      <path class="cls-1" d="m217.59,69.37c-.89,0-1.73-.16-2.51-.49-.78-.33-1.46-.78-2.05-1.35-.59-.57-1.04-1.24-1.37-2-.33-.76-.49-1.58-.49-2.45s.16-1.69.49-2.45c.33-.76.78-1.43,1.36-2,.58-.57,1.26-1.02,2.03-1.35.77-.32,1.6-.49,2.5-.49.99,0,1.92.19,2.79.57.88.38,1.61.92,2.19,1.62l-1.5,1.39c-.43-.52-.95-.92-1.55-1.19-.6-.27-1.25-.41-1.93-.41-.59,0-1.14.11-1.65.32-.51.21-.95.52-1.33.91-.38.39-.68.84-.89,1.37s-.31,1.09-.31,1.71.11,1.18.32,1.71c.21.52.51.98.9,1.38.38.4.83.7,1.34.91s1.07.32,1.67.32c.65,0,1.24-.13,1.78-.39.53-.26.97-.62,1.31-1.09s.56-.99.65-1.57h-3.83v-1.88h6.11v.71c0,.88-.15,1.7-.45,2.45-.3.75-.73,1.41-1.27,1.97-.55.56-1.19,1-1.92,1.31s-1.54.46-2.39.46Z"/>
      <path class="cls-1" d="m232.4,69.35c-.98,0-1.92-.19-2.85-.57-.92-.38-1.74-.91-2.45-1.59l1.27-1.53c.68.64,1.36,1.11,2.03,1.41.67.3,1.38.45,2.13.45.55,0,1.02-.08,1.44-.23.41-.15.73-.36.96-.64.23-.27.34-.59.34-.95,0-.49-.17-.86-.51-1.12s-.92-.46-1.73-.58l-2.21-.38c-1.08-.19-1.89-.55-2.44-1.09-.55-.54-.82-1.25-.82-2.12,0-.73.19-1.37.57-1.91.38-.54.92-.96,1.61-1.25.7-.29,1.52-.44,2.46-.44.88,0,1.76.15,2.63.44.87.29,1.65.7,2.33,1.24l-1.18,1.62c-1.29-.99-2.6-1.48-3.92-1.48-.49,0-.92.07-1.29.2-.37.13-.66.32-.86.56-.2.24-.3.52-.3.84,0,.44.15.78.46,1.01s.81.41,1.51.52l2.12.35c1.27.21,2.2.59,2.8,1.15.6.56.91,1.31.91,2.26,0,.77-.21,1.44-.62,2.01s-.99,1.02-1.74,1.33c-.75.31-1.63.47-2.64.47Z"/>
      <path class="cls-1" d="m238.58,69.18v-12.19h5.85c.8,0,1.5.16,2.11.47s1.07.75,1.41,1.31c.34.56.5,1.21.5,1.94s-.17,1.36-.5,1.92c-.34.56-.81,1-1.42,1.31s-1.31.48-2.1.48h-3.71v4.75h-2.14Zm2.14-6.57h3.48c.64,0,1.15-.17,1.52-.51.38-.34.57-.8.57-1.37s-.19-1.02-.57-1.37c-.38-.34-.89-.51-1.52-.51h-3.48v3.76Z"/>
      <path class="cls-1" d="m249.83,69.18v-12.19h9.16v1.88h-7.02v3.24h4.62v1.83h-4.62v3.36h7.09v1.88h-9.23Z"/>
      <path class="cls-1" d="m265.61,69.37c-.91,0-1.75-.16-2.53-.48-.78-.32-1.46-.77-2.05-1.34-.59-.57-1.04-1.24-1.37-2-.33-.76-.49-1.58-.49-2.46s.16-1.7.49-2.46c.33-.76.78-1.43,1.37-2,.59-.57,1.27-1.02,2.05-1.34.78-.32,1.62-.48,2.52-.48.65,0,1.29.09,1.91.26.62.17,1.2.42,1.72.75.53.33.98.72,1.37,1.18l-1.45,1.45c-.45-.55-.99-.96-1.6-1.24s-1.27-.42-1.95-.42c-.6,0-1.16.11-1.67.32s-.96.52-1.34.91c-.38.39-.68.84-.9,1.37-.22.52-.32,1.09-.32,1.71s.11,1.17.32,1.69c.21.52.52.98.91,1.37s.84.69,1.37.91,1.09.32,1.71.32c.67,0,1.31-.14,1.91-.41.6-.27,1.11-.66,1.54-1.18l1.41,1.41c-.38.44-.84.83-1.37,1.16-.53.33-1.1.58-1.71.76-.61.17-1.23.26-1.86.26Z"/>
      <path class="cls-1" d="m271.77,69.18v-12.19h2.14v12.19h-2.14Z"/>
      <path class="cls-1" d="m274.65,69.18l5.02-12.19h2.51l4.98,12.19h-2.33l-1.34-3.4h-5.26l-1.34,3.4h-2.23Zm4.27-5.16h3.9l-1.95-4.95-1.95,4.95Z"/>
      <path class="cls-1" d="m287.87,69.18v-12.19h2.14v10.28h6.86v1.92h-9Z"/>
      <path class="cls-1" d="m298.23,69.18v-12.19h2.14v12.19h-2.14Z"/>
      <path class="cls-1" d="m306.52,69.35c-.98,0-1.92-.19-2.85-.57-.92-.38-1.74-.91-2.45-1.59l1.27-1.53c.68.64,1.36,1.11,2.03,1.41.67.3,1.38.45,2.13.45.55,0,1.02-.08,1.44-.23.41-.15.73-.36.96-.64.23-.27.34-.59.34-.95,0-.49-.17-.86-.51-1.12s-.92-.46-1.73-.58l-2.21-.38c-1.08-.19-1.89-.55-2.44-1.09-.55-.54-.82-1.25-.82-2.12,0-.73.19-1.37.57-1.91.38-.54.92-.96,1.61-1.25.7-.29,1.52-.44,2.46-.44.88,0,1.76.15,2.63.44.87.29,1.65.7,2.33,1.24l-1.18,1.62c-1.29-.99-2.6-1.48-3.92-1.48-.49,0-.92.07-1.29.2-.37.13-.66.32-.86.56-.2.24-.3.52-.3.84,0,.44.15.78.46,1.01s.81.41,1.51.52l2.12.35c1.27.21,2.2.59,2.8,1.15.6.56.91,1.31.91,2.26,0,.77-.21,1.44-.62,2.01s-.99,1.02-1.74,1.33c-.75.31-1.63.47-2.64.47Z"/>
      <path class="cls-1" d="m315.77,69.18v-10.28h-4.21v-1.92h10.57v1.92h-4.21v10.28h-2.14Z"/>
    </g>
    <polygon class="cls-2" points="25.78 38.59 33.78 38.59 43.12 17.59 43.12 38.59 48.61 38.59 48.61 6.59 41.78 6.59 30.78 33.59 28.78 33.59 17.78 6.59 10.78 6.59 10.78 38.59 16.28 38.59 16.28 17.59 25.78 38.59"/>
    <path class="cls-2" d="m87.78,17.59s-1.01-2.68-3-5c-2.87-3.35-9.58-6.07-18-6h-16.1v32h16.1c8.42.07,15.13-2.65,18-6,1.99-2.32,3-5,3-5,.38-1.01,1-2.7,1-5s-.62-3.99-1-5Zm-5.95,8.32s-.7,1.88-2.09,3.52c-2,2.35-6.67,4.27-12.52,4.22h-11.2V11.14h11.2c5.85-.05,10.52,1.86,12.52,4.22,1.38,1.63,2.09,3.52,2.09,3.52.26.71.7,1.9.7,3.52s-.43,2.81-.7,3.52Z"/>
    <path class="cls-2" d="m87.78,50.24s-1.01-2.68-3-5c-2.87-3.35-9.58-6.07-18-6h-16.1v32h16.1c8.42.07,15.13-2.65,18-6,1.99-2.32,3-5,3-5,.38-1.01,1-2.7,1-5s-.62-3.99-1-5Zm-5.95,8.32s-.7,1.88-2.09,3.52c-2,2.35-6.67,4.27-12.52,4.22h-11.2v-22.5h11.2c5.85-.05,10.52,1.86,12.52,4.22,1.38,1.63,2.09,3.52,2.09,3.52.26.71.7,1.9.7,3.52s-.43,2.81-.7,3.52Z"/>
    <polygon class="cls-2" points="10.78 39.11 10.78 71.33 18.61 71.33 18.61 67.83 16.28 67.83 16.28 39.11 10.78 39.11"/>
    <polygon class="cls-2" points="48.61 39.11 48.61 71.33 40.78 71.33 40.78 67.83 43.12 67.83 43.12 39.11 48.61 39.11"/>
    <rect class="cls-1" width="7.28" height="78"/>
    <rect class="cls-1" x="92" width="7.28" height="78"/>
  </g>
</svg>