<?xml version="1.0" encoding="UTF-8"?>
<svg id="Layer_2" data-name="Layer 2" xmlns="http://www.w3.org/2000/svg" viewBox="0 0 99 78">
  <defs>
    <style>
      .cls-1 {
        fill: #e6e6e6;
      }

      .cls-2 {
        fill: #aca194;
      }
    </style>
  </defs>
  <g id="Layer_1-2" data-name="Layer 1">
    <rect class="cls-2" width="7.72" height="78"/>
    <rect class="cls-2" x="91.72" width="7.28" height="78"/>
    <polygon class="cls-1" points="25.72 39 33.72 39 43.06 18 43.06 39 48.56 39 48.56 7 41.72 7 30.72 34 28.72 34 17.72 7 10.72 7 10.72 39 16.22 39 16.22 18 25.72 39"/>
    <path class="cls-1" d="m87.72,18s-1.01-2.68-3-5c-2.87-3.35-9.58-6.07-18-6h-16.1v32h16.1c8.42.07,15.13-2.65,18-6,1.99-2.32,3-5,3-5,.38-1.01,1-2.7,1-5s-.62-3.99-1-5Zm-5.95,8.32s-.7,1.88-2.09,3.52c-2,2.35-6.67,4.27-12.52,4.22h-11.2V11.55h11.2c5.85-.05,10.52,1.86,12.52,4.22,1.38,1.63,2.09,3.52,2.09,3.52.26.71.7,1.9.7,3.52s-.43,2.81-.7,3.52Z"/>
    <path class="cls-1" d="m87.72,50.25s-1.01-2.68-3-5c-2.87-3.35-9.58-6.07-18-6h-16.1v32h16.1c8.42.07,15.13-2.65,18-6,1.99-2.32,3-5,3-5,.38-1.01,1-2.7,1-5s-.62-3.99-1-5Zm-5.95,8.32s-.7,1.88-2.09,3.52c-2,2.35-6.67,4.27-12.52,4.22h-11.2v-22.5h11.2c5.85-.05,10.52,1.86,12.52,4.22,1.38,1.63,2.09,3.52,2.09,3.52.26.71.7,1.9.7,3.52s-.43,2.81-.7,3.52Z"/>
    <polygon class="cls-1" points="10.72 39.27 10.72 71.49 18.56 71.49 18.56 67.99 16.22 67.99 16.22 39.27 10.72 39.27"/>
    <polygon class="cls-1" points="48.56 39.27 48.56 71.49 40.72 71.49 40.72 67.99 43.06 67.99 43.06 39.27 48.56 39.27"/>
  </g>
</svg>