<?xml version="1.0" encoding="UTF-8"?>
<svg id="Layer_2" data-name="Layer 2" xmlns="http://www.w3.org/2000/svg" viewBox="0 0 280.69 78">
  <defs>
    <style>
      .cls-1, .cls-2 {
        fill: #84796c;
      }

      .cls-3 {
        letter-spacing: -.05em;
      }

      .cls-4 {
        letter-spacing: -.07em;
      }

      .cls-5 {
        letter-spacing: -.08em;
      }

      .cls-6 {
        fill: #080e1c;
      }

      .cls-7 {
        letter-spacing: -.02em;
      }

      .cls-8 {
        font-family: RedHatDisplay-SemiBold, 'Red Hat Display';
        font-size: 32.42px;
        font-variation-settings: 'wght' 600;
        font-weight: 600;
      }

      .cls-9 {
        letter-spacing: -.04em;
      }

      .cls-2 {
        font-family: RedHatDisplay-Bold, 'Red Hat Display';
        font-size: 12.97px;
        font-variation-settings: 'wght' 700;
        font-weight: 700;
      }

      .cls-10 {
        letter-spacing: -.03em;
      }

      .cls-11 {
        letter-spacing: -.01em;
      }

      .cls-12 {
        letter-spacing: -.15em;
      }
    </style>
  </defs>
  <g id="Layer_1-2" data-name="Layer 1">
    <text class="cls-8" transform="translate(102.8 44.49)"><tspan class="cls-10" x="0" y="0">MB D</tspan><tspan class="cls-5" x="75.54" y="0">E</tspan><tspan class="cls-3" x="93.31" y="0">C</tspan><tspan class="cls-10" x="115.03" y="0">OR</tspan></text>
    <rect x="267.72" y="38.04" width="12.97" height="2.16"/>
    <text class="cls-2" transform="translate(106.91 62.35)"><tspan class="cls-7" x="0" y="0">D</tspan><tspan class="cls-4" x="9.17" y="0">E</tspan><tspan class="cls-9" x="16.51" y="0">C</tspan><tspan class="cls-7" x="25.32" y="0">O</tspan><tspan class="cls-11" x="35.51" y="0">R</tspan><tspan class="cls-12" x="43.99" y="0">A</tspan><tspan class="cls-7" x="51.32" y="0">TING SP</tspan><tspan class="cls-4" x="100.03" y="0">E</tspan><tspan class="cls-7" x="107.37" y="0">CIALI</tspan><tspan class="cls-9" x="139.1" y="0">S</tspan><tspan class="cls-7" x="146.65" y="0">T</tspan></text>
    <polygon class="cls-6" points="25.78 38.59 33.78 38.59 43.12 17.59 43.12 38.59 48.61 38.59 48.61 6.59 41.78 6.59 30.78 33.59 28.78 33.59 17.78 6.59 10.78 6.59 10.78 38.59 16.28 38.59 16.28 17.59 25.78 38.59"/>
    <path class="cls-6" d="m87.78,17.59s-1.01-2.68-3-5c-2.87-3.35-9.58-6.07-18-6h-16.1v32h16.1c8.42.07,15.13-2.65,18-6,1.99-2.32,3-5,3-5,.38-1.01,1-2.7,1-5s-.62-3.99-1-5Zm-5.95,8.32s-.7,1.88-2.09,3.52c-2,2.35-6.67,4.27-12.52,4.22h-11.2V11.14h11.2c5.85-.05,10.52,1.86,12.52,4.22,1.38,1.63,2.09,3.52,2.09,3.52.26.71.7,1.9.7,3.52s-.43,2.81-.7,3.52Z"/>
    <path class="cls-6" d="m87.78,50.24s-1.01-2.68-3-5c-2.87-3.35-9.58-6.07-18-6h-16.1v32h16.1c8.42.07,15.13-2.65,18-6,1.99-2.32,3-5,3-5,.38-1.01,1-2.7,1-5s-.62-3.99-1-5Zm-5.95,8.32s-.7,1.88-2.09,3.52c-2,2.35-6.67,4.27-12.52,4.22h-11.2v-22.5h11.2c5.85-.05,10.52,1.86,12.52,4.22,1.38,1.63,2.09,3.52,2.09,3.52.26.71.7,1.9.7,3.52s-.43,2.81-.7,3.52Z"/>
    <polygon class="cls-6" points="10.78 39.11 10.78 71.33 18.61 71.33 18.61 67.83 16.28 67.83 16.28 39.11 10.78 39.11"/>
    <polygon class="cls-6" points="48.61 39.11 48.61 71.33 40.78 71.33 40.78 67.83 43.12 67.83 43.12 39.11 48.61 39.11"/>
    <rect class="cls-1" width="7.28" height="78"/>
    <rect class="cls-1" x="92" width="7.28" height="78"/>
  </g>
</svg>