<?xml version="1.0" encoding="UTF-8"?>
<svg id="Layer_2" data-name="Layer 2" xmlns="http://www.w3.org/2000/svg" viewBox="0 0 99.28 78">
  <defs>
    <style>
      .cls-1 {
        fill: #84796c;
      }

      .cls-2 {
        fill: #080e1c;
      }
    </style>
  </defs>
  <g id="Layer_1-2" data-name="Layer 1">
    <polygon class="cls-2" points="25.78 38.59 33.78 38.59 43.12 17.59 43.12 38.59 48.61 38.59 48.61 6.59 41.78 6.59 30.78 33.59 28.78 33.59 17.78 6.59 10.78 6.59 10.78 38.59 16.28 38.59 16.28 17.59 25.78 38.59"/>
    <path class="cls-2" d="m87.78,17.59s-1.01-2.68-3-5c-2.87-3.35-9.58-6.07-18-6h-16.1v32h16.1c8.42.07,15.13-2.65,18-6,1.99-2.32,3-5,3-5,.38-1.01,1-2.7,1-5s-.62-3.99-1-5Zm-5.95,8.32s-.7,1.88-2.09,3.52c-2,2.35-6.67,4.27-12.52,4.22h-11.2V11.14h11.2c5.85-.05,10.52,1.86,12.52,4.22,1.38,1.63,2.09,3.52,2.09,3.52.26.71.7,1.9.7,3.52s-.43,2.81-.7,3.52Z"/>
    <path class="cls-2" d="m87.78,50.24s-1.01-2.68-3-5c-2.87-3.35-9.58-6.07-18-6h-16.1v32h16.1c8.42.07,15.13-2.65,18-6,1.99-2.32,3-5,3-5,.38-1.01,1-2.7,1-5s-.62-3.99-1-5Zm-5.95,8.32s-.7,1.88-2.09,3.52c-2,2.35-6.67,4.27-12.52,4.22h-11.2v-22.5h11.2c5.85-.05,10.52,1.86,12.52,4.22,1.38,1.63,2.09,3.52,2.09,3.52.26.71.7,1.9.7,3.52s-.43,2.81-.7,3.52Z"/>
    <polygon class="cls-2" points="10.78 39.11 10.78 71.33 18.61 71.33 18.61 67.83 16.28 67.83 16.28 39.11 10.78 39.11"/>
    <polygon class="cls-2" points="48.61 39.11 48.61 71.33 40.78 71.33 40.78 67.83 43.12 67.83 43.12 39.11 48.61 39.11"/>
    <rect class="cls-1" width="7.28" height="78"/>
    <rect class="cls-1" x="92" width="7.28" height="78"/>
  </g>
</svg>