<?xml version="1.0" encoding="UTF-8"?>
<svg id="Layer_2" data-name="Layer 2" xmlns="http://www.w3.org/2000/svg" viewBox="0 0 136 100.5">
  <defs>
    <style>
      .cls-1 {
        fill: #9a8a75;
      }

      .cls-2 {
        fill: #080e1c;
      }
    </style>
  </defs>
  <g id="Layer_1-2" data-name="Layer 1">
    <g>
      <path class="cls-2" d="m41.16,78.97L19.16,31.06v38.04c0,3.5.38,5.68,1.13,6.55,1.04,1.18,2.67,1.76,4.91,1.76h2.02v1.55H7.4v-1.55h2.02c2.41,0,4.12-.73,5.12-2.18.62-.9.92-2.94.92-6.13V31.9c0-2.52-.28-4.34-.84-5.46-.39-.81-1.11-1.49-2.16-2.04s-2.74-.82-5.06-.82v-1.55h16.12l20.66,44.55,20.32-44.55h16.12v1.55h-1.97c-2.44,0-4.16.73-5.17,2.18-.62.9-.92,2.94-.92,6.13v37.21c0,3.5.39,5.68,1.18,6.55,1.04,1.18,2.67,1.76,4.91,1.76h1.97v1.55h-24.19v-1.55h2.02c2.44,0,4.14-.73,5.12-2.18.62-.9.92-2.94.92-6.13V31.06l-21.96,47.91h-1.39Z"/>
      <path class="cls-2" d="m115.97,49.91c3.95.84,6.9,2.18,8.86,4.03,2.71,2.58,4.07,5.73,4.07,9.45,0,2.83-.9,5.54-2.69,8.13-1.79,2.59-4.25,4.48-7.37,5.67-3.12,1.19-7.89,1.78-14.3,1.78h-26.88v-1.55h2.14c2.38,0,4.09-.76,5.12-2.27.64-.98.97-3.07.97-6.26v-36.79c0-3.53-.41-5.75-1.22-6.68-1.09-1.23-2.72-1.85-4.87-1.85h-2.14v-1.55h24.61c4.59,0,8.27.34,11.04,1.01,4.2,1.01,7.4,2.79,9.62,5.35,2.21,2.56,3.32,5.51,3.32,8.84,0,2.86-.87,5.41-2.6,7.66-1.74,2.25-4.3,3.93-7.68,5.02Zm-22-2.27c1.04.2,2.22.34,3.55.44,1.33.1,2.79.15,4.39.15,4.09,0,7.16-.44,9.22-1.32s3.63-2.23,4.72-4.05c1.09-1.82,1.64-3.81,1.64-5.96,0-3.33-1.36-6.17-4.07-8.52-2.72-2.35-6.68-3.53-11.88-3.53-2.8,0-5.32.31-7.56.92v21.88Zm0,27.21c3.25.76,6.45,1.13,9.62,1.13,5.07,0,8.93-1.14,11.59-3.42,2.66-2.28,3.99-5.1,3.99-8.46,0-2.21-.6-4.34-1.81-6.38-1.2-2.04-3.16-3.65-5.88-4.83-2.72-1.18-6.08-1.76-10.08-1.76-1.74,0-3.22.03-4.45.08-1.23.06-2.23.15-2.98.29v23.35Z"/>
    </g>
    <rect class="cls-1" y=".5" width="2" height="100"/>
    <rect class="cls-1" x="134" width="2" height="100"/>
  </g>
</svg>