<?xml version="1.0" encoding="UTF-8"?>
<svg id="Layer_2" data-name="Layer 2" xmlns="http://www.w3.org/2000/svg" viewBox="0 0 344.09 100.5">
  <defs>
    <style>
      .cls-1 {
        fill: #9a8a75;
      }

      .cls-2 {
        fill: #080e1c;
      }

      .cls-3 {
        fill: #333;
      }

      .cls-4 {
        fill: #1a1a1a;
      }
    </style>
  </defs>
  <g id="Layer_1-2" data-name="Layer 1">
    <g>
      <path class="cls-2" d="m41.16,78.97L19.16,31.06v38.04c0,3.5.38,5.68,1.13,6.55,1.04,1.18,2.67,1.76,4.91,1.76h2.02v1.55H7.4v-1.55h2.02c2.41,0,4.12-.73,5.12-2.18.62-.9.92-2.94.92-6.13V31.9c0-2.52-.28-4.34-.84-5.46-.39-.81-1.11-1.49-2.16-2.04s-2.74-.82-5.06-.82v-1.55h16.12l20.66,44.55,20.32-44.55h16.12v1.55h-1.97c-2.44,0-4.16.73-5.17,2.18-.62.9-.92,2.94-.92,6.13v37.21c0,3.5.39,5.68,1.18,6.55,1.04,1.18,2.67,1.76,4.91,1.76h1.97v1.55h-24.19v-1.55h2.02c2.44,0,4.14-.73,5.12-2.18.62-.9.92-2.94.92-6.13V31.06l-21.96,47.91h-1.39Z"/>
      <path class="cls-2" d="m115.97,49.91c3.95.84,6.9,2.18,8.86,4.03,2.71,2.58,4.07,5.73,4.07,9.45,0,2.83-.9,5.54-2.69,8.13-1.79,2.59-4.25,4.48-7.37,5.67-3.12,1.19-7.89,1.78-14.3,1.78h-26.88v-1.55h2.14c2.38,0,4.09-.76,5.12-2.27.64-.98.97-3.07.97-6.26v-36.79c0-3.53-.41-5.75-1.22-6.68-1.09-1.23-2.72-1.85-4.87-1.85h-2.14v-1.55h24.61c4.59,0,8.27.34,11.04,1.01,4.2,1.01,7.4,2.79,9.62,5.35,2.21,2.56,3.32,5.51,3.32,8.84,0,2.86-.87,5.41-2.6,7.66-1.74,2.25-4.3,3.93-7.68,5.02Zm-22-2.27c1.04.2,2.22.34,3.55.44,1.33.1,2.79.15,4.39.15,4.09,0,7.16-.44,9.22-1.32s3.63-2.23,4.72-4.05c1.09-1.82,1.64-3.81,1.64-5.96,0-3.33-1.36-6.17-4.07-8.52-2.72-2.35-6.68-3.53-11.88-3.53-2.8,0-5.32.31-7.56.92v21.88Zm0,27.21c3.25.76,6.45,1.13,9.62,1.13,5.07,0,8.93-1.14,11.59-3.42,2.66-2.28,3.99-5.1,3.99-8.46,0-2.21-.6-4.34-1.81-6.38-1.2-2.04-3.16-3.65-5.88-4.83-2.72-1.18-6.08-1.76-10.08-1.76-1.74,0-3.22.03-4.45.08-1.23.06-2.23.15-2.98.29v23.35Z"/>
    </g>
    <rect class="cls-1" y=".5" width="2" height="100"/>
    <rect class="cls-1" x="134" width="2" height="100"/>
    <g>
      <path class="cls-4" d="m148.66,46.9v-14.31h1.85l5.52,12.44h-.61l5.52-12.44h1.83v14.31h-1.91v-11.45h.67l-5.16,11.45h-1.32l-5.15-11.45h.69v11.45h-1.93Z"/>
      <path class="cls-4" d="m168.21,46.9v-14.31h5.97c1.54,0,2.73.32,3.56.97.83.65,1.25,1.56,1.25,2.74,0,.88-.26,1.62-.79,2.21s-1.25.99-2.17,1.2v-.3c1.06.14,1.87.51,2.46,1.12.58.61.87,1.41.87,2.42,0,1.27-.43,2.25-1.29,2.93-.86.68-2.07,1.02-3.62,1.02h-6.23Zm2.05-8.06h3.59c1.03,0,1.8-.2,2.31-.59.51-.39.77-.97.77-1.73s-.26-1.33-.77-1.73c-.51-.39-1.29-.59-2.31-.59h-3.59v4.63Zm0,6.41h3.96c.96,0,1.72-.18,2.26-.55.55-.37.82-.98.82-1.85s-.27-1.48-.82-1.85c-.55-.37-1.3-.55-2.26-.55h-3.96v4.79Z"/>
      <path class="cls-4" d="m191.59,46.9v-14.31h4.95c1.61,0,2.97.28,4.09.83,1.12.55,1.96,1.36,2.54,2.42.58,1.06.86,2.36.86,3.89s-.29,2.81-.86,3.88c-.57,1.07-1.42,1.88-2.54,2.45-1.12.56-2.48.84-4.09.84h-4.95Zm2.11-1.77h2.72c1.84,0,3.21-.45,4.11-1.34.9-.89,1.35-2.25,1.35-4.06s-.45-3.16-1.35-4.05c-.9-.89-2.27-1.33-4.11-1.33h-2.72v10.78Z"/>
      <path class="cls-4" d="m208.92,46.9v-14.31h9.38v1.68h-7.33v4.51h6.86v1.7h-6.86v4.71h7.33v1.7h-9.38Z"/>
      <path class="cls-4" d="m229.34,47.08c-1.46,0-2.71-.3-3.73-.89s-1.82-1.44-2.36-2.55c-.55-1.1-.82-2.41-.82-3.91s.27-2.8.82-3.9c.55-1.1,1.34-1.94,2.36-2.54s2.27-.89,3.73-.89c1.01,0,1.92.15,2.72.45.8.3,1.49.73,2.09,1.3l-.73,1.68c-.65-.55-1.28-.95-1.9-1.2-.62-.24-1.33-.37-2.14-.37-1.54,0-2.72.47-3.53,1.42s-1.22,2.29-1.22,4.04.41,3.1,1.22,4.05,1.99,1.43,3.53,1.43c.81,0,1.53-.12,2.14-.37.62-.24,1.25-.65,1.9-1.22l.73,1.68c-.6.57-1.29,1.01-2.09,1.31-.8.3-1.71.46-2.72.46Z"/>
      <path class="cls-4" d="m237.9,39.73c0-1.5.26-2.8.79-3.9s1.3-1.94,2.3-2.54c1.01-.6,2.21-.89,3.6-.89s2.57.3,3.57.89c1,.6,1.78,1.44,2.32,2.54.55,1.1.82,2.39.82,3.88s-.27,2.8-.82,3.91c-.55,1.1-1.33,1.96-2.33,2.56s-2.2.9-3.56.9-2.59-.3-3.59-.9c-1-.6-1.77-1.45-2.3-2.56-.54-1.1-.8-2.4-.8-3.89Zm2.21,0c0,1.73.38,3.08,1.14,4.06.76.97,1.87,1.46,3.35,1.46s2.54-.48,3.33-1.45c.78-.97,1.18-2.32,1.18-4.07s-.39-3.1-1.17-4.06c-.78-.96-1.89-1.44-3.34-1.44s-2.59.48-3.35,1.44c-.76.96-1.14,2.31-1.14,4.06Z"/>
      <path class="cls-4" d="m256.23,46.9v-14.31h6.05c1.53,0,2.71.36,3.55,1.09.84.72,1.26,1.74,1.26,3.03,0,.85-.19,1.58-.57,2.19-.38.61-.91,1.07-1.6,1.39-.69.32-1.5.48-2.44.48l.32-.32h.55c.55,0,1.05.14,1.49.43.44.28.8.74,1.09,1.36l2.05,4.67h-2.31l-2.03-4.69c-.2-.55-.52-.91-.94-1.08-.43-.16-.95-.24-1.57-.24h-2.78v6.01h-2.11Zm2.11-7.61h3.59c1.01,0,1.78-.22,2.3-.65.52-.43.78-1.06.78-1.87s-.26-1.45-.78-1.87-1.29-.63-2.3-.63h-3.59v5.01Z"/>
    </g>
    <g>
      <path class="cls-3" d="m149.06,68.37v-8.51h2.82c.94,0,1.74.16,2.39.49.65.33,1.15.8,1.48,1.44.34.63.51,1.41.51,2.32s-.17,1.68-.51,2.32-.83,1.12-1.48,1.45c-.65.33-1.45.49-2.39.49h-2.82Zm1-.86h1.75c1.16,0,2.02-.28,2.58-.85.56-.57.84-1.42.84-2.55s-.28-1.99-.84-2.56c-.56-.56-1.42-.84-2.58-.84h-1.75v6.81Z"/>
      <path class="cls-3" d="m160.49,68.37v-8.51h5.43v.82h-4.45v2.96h4.19v.83h-4.19v3.07h4.45v.83h-5.43Z"/>
      <path class="cls-3" d="m173.67,68.48c-.85,0-1.58-.18-2.17-.53-.6-.35-1.05-.86-1.37-1.51-.32-.65-.48-1.43-.48-2.33s.16-1.67.48-2.32c.32-.65.77-1.15,1.37-1.5.6-.35,1.32-.53,2.17-.53.6,0,1.14.09,1.62.28s.89.45,1.24.81l-.37.8c-.39-.34-.77-.59-1.15-.74-.38-.16-.82-.23-1.33-.23-.97,0-1.71.3-2.22.9-.51.6-.76,1.45-.76,2.55s.25,1.95.76,2.55c.51.61,1.25.91,2.22.91.51,0,.95-.08,1.33-.24.38-.16.76-.41,1.15-.75l.37.81c-.35.35-.77.61-1.24.8-.47.19-1.01.28-1.62.28Z"/>
      <path class="cls-3" d="m180.07,64.11c0-.9.15-1.67.46-2.32.31-.65.76-1.15,1.34-1.5.58-.35,1.29-.53,2.11-.53s1.49.18,2.08.53c.59.35,1.04.85,1.36,1.5.32.65.48,1.42.48,2.31s-.16,1.68-.48,2.33-.77,1.16-1.36,1.51c-.58.36-1.27.54-2.07.54s-1.52-.18-2.1-.54c-.58-.36-1.03-.86-1.34-1.51s-.47-1.42-.47-2.32Zm1.05,0c0,1.09.24,1.95.72,2.56.48.62,1.19.92,2.14.92s1.6-.31,2.11-.92.75-1.47.75-2.56-.25-1.96-.75-2.56c-.5-.61-1.2-.91-2.11-.91s-1.65.3-2.14.91c-.48.61-.72,1.46-.72,2.56Z"/>
      <path class="cls-3" d="m192.11,68.37v-8.51h3.48c.89,0,1.59.21,2.08.63.49.42.74,1.01.74,1.77,0,.5-.11.92-.33,1.27-.22.35-.53.62-.93.8-.4.18-.86.28-1.39.28l.22-.16h.24c.33,0,.63.08.89.24.26.16.47.43.62.81l1.21,2.86h-1.1l-1.16-2.81c-.14-.36-.34-.6-.62-.71-.27-.11-.62-.16-1.03-.16h-1.91v3.68h-1Zm1-4.47h2.33c.64,0,1.13-.14,1.47-.42.33-.28.5-.68.5-1.2s-.17-.92-.5-1.19c-.33-.27-.82-.41-1.47-.41h-2.33v3.22Z"/>
      <path class="cls-3" d="m201.9,68.37l3.75-8.51h.87l3.81,8.51h-1.04l-1.06-2.43.45.25h-5.2l.48-.25-1.04,2.43h-1.03Zm4.18-7.36l-1.95,4.59-.29-.22h4.49l-.22.22-2-4.59h-.02Z"/>
      <path class="cls-3" d="m215.17,68.37v-7.66h-3v-.84h7v.84h-2.99v7.66h-1Z"/>
      <path class="cls-3" d="m222.81,68.37v-8.51h1v8.51h-1Z"/>
      <path class="cls-3" d="m228.35,68.37v-8.51h.78l5.45,7.24h-.28v-7.24h.93v8.51h-.77l-5.45-7.24h.27v7.24h-.93Z"/>
      <path class="cls-3" d="m243.69,68.48c-.93,0-1.71-.17-2.34-.52s-1.1-.84-1.41-1.5c-.31-.65-.47-1.43-.47-2.34s.16-1.68.49-2.33c.33-.65.8-1.15,1.42-1.51.62-.35,1.37-.53,2.24-.53.62,0,1.16.09,1.61.27.45.18.86.45,1.22.8l-.37.78c-.27-.23-.52-.42-.77-.56-.25-.14-.5-.24-.77-.31-.27-.07-.58-.1-.93-.1-1.01,0-1.78.3-2.31.91-.54.61-.8,1.47-.8,2.58s.26,1.98.78,2.57c.52.6,1.33.89,2.42.89.4,0,.79-.04,1.15-.11.37-.08.72-.19,1.07-.33l-.22.54v-2.99h-2.17v-.78h3.03v3.95c-.35.18-.78.33-1.31.45-.53.11-1.05.17-1.57.17Z"/>
      <path class="cls-3" d="m259.36,68.48c-.68,0-1.3-.09-1.83-.27-.54-.18-1.01-.43-1.41-.76l.36-.8c.28.21.57.38.85.53.29.14.59.25.92.31s.7.1,1.11.1c.72,0,1.25-.13,1.59-.4.35-.27.52-.62.52-1.06,0-.38-.12-.67-.36-.87-.24-.2-.66-.36-1.27-.48l-1.27-.25c-.78-.16-1.36-.42-1.74-.78-.38-.36-.57-.85-.57-1.47,0-.51.13-.95.39-1.33s.63-.67,1.1-.88c.47-.21,1.03-.31,1.65-.31s1.15.09,1.65.27c.5.18.93.44,1.28.79l-.35.77c-.38-.34-.77-.58-1.19-.73-.41-.15-.88-.22-1.41-.22-.66,0-1.18.14-1.56.43-.38.29-.57.67-.57,1.17,0,.39.12.7.36.92.24.22.64.39,1.19.5l1.28.25c.82.17,1.42.42,1.81.76s.58.81.58,1.42c0,.47-.13.88-.38,1.24-.25.36-.61.64-1.08.84s-1.02.3-1.67.3Z"/>
      <path class="cls-3" d="m266.51,68.37v-8.51h3.46c.89,0,1.58.22,2.06.65.48.43.72,1.03.72,1.79s-.24,1.34-.72,1.78c-.48.44-1.17.66-2.06.66h-2.46v3.63h-1Zm1-4.47h2.37c.62,0,1.09-.14,1.41-.42.32-.28.48-.68.48-1.18s-.16-.91-.48-1.19c-.32-.28-.79-.42-1.41-.42h-2.37v3.22Z"/>
      <path class="cls-3" d="m276.78,68.37v-8.51h5.43v.82h-4.45v2.96h4.19v.83h-4.19v3.07h4.45v.83h-5.43Z"/>
      <path class="cls-3" d="m289.96,68.48c-.85,0-1.58-.18-2.17-.53-.6-.35-1.05-.86-1.37-1.51-.32-.65-.48-1.43-.48-2.33s.16-1.67.48-2.32c.32-.65.77-1.15,1.37-1.5.6-.35,1.32-.53,2.17-.53.6,0,1.14.09,1.62.28s.89.45,1.24.81l-.37.8c-.39-.34-.77-.59-1.15-.74-.38-.16-.82-.23-1.33-.23-.97,0-1.71.3-2.22.9-.51.6-.76,1.45-.76,2.55s.25,1.95.76,2.55c.51.61,1.25.91,2.22.91.51,0,.95-.08,1.33-.24.38-.16.76-.41,1.15-.75l.37.81c-.35.35-.77.61-1.24.8-.47.19-1.01.28-1.62.28Z"/>
      <path class="cls-3" d="m296.92,68.37v-8.51h1v8.51h-1Z"/>
      <path class="cls-3" d="m301.62,68.37l3.75-8.51h.87l3.81,8.51h-1.04l-1.06-2.43.45.25h-5.2l.48-.25-1.04,2.43h-1.03Zm4.18-7.36l-1.95,4.59-.29-.22h4.49l-.22.22-2-4.59h-.02Z"/>
      <path class="cls-3" d="m313.75,68.37v-8.51h1v7.64h4.3v.87h-5.3Z"/>
      <path class="cls-3" d="m322.74,68.37v-8.51h1v8.51h-1Z"/>
      <path class="cls-3" d="m331.05,68.48c-.68,0-1.3-.09-1.83-.27-.54-.18-1.01-.43-1.41-.76l.36-.8c.28.21.57.38.85.53.29.14.59.25.92.31s.7.1,1.11.1c.72,0,1.25-.13,1.59-.4.35-.27.52-.62.52-1.06,0-.38-.12-.67-.36-.87-.24-.2-.66-.36-1.27-.48l-1.27-.25c-.78-.16-1.36-.42-1.74-.78-.38-.36-.57-.85-.57-1.47,0-.51.13-.95.39-1.33s.63-.67,1.1-.88c.47-.21,1.03-.31,1.65-.31s1.15.09,1.65.27c.5.18.93.44,1.28.79l-.35.77c-.38-.34-.77-.58-1.19-.73-.41-.15-.88-.22-1.41-.22-.66,0-1.18.14-1.56.43-.38.29-.57.67-.57,1.17,0,.39.12.7.36.92.24.22.64.39,1.19.5l1.28.25c.82.17,1.42.42,1.81.76s.58.81.58,1.42c0,.47-.13.88-.38,1.24-.25.36-.61.64-1.08.84s-1.02.3-1.67.3Z"/>
      <path class="cls-3" d="m340.09,68.37v-7.66h-3v-.84h7v.84h-2.99v7.66h-1Z"/>
    </g>
    <rect class="cls-1" x="292.87" y="25.52" width=".64" height="30.6" transform="translate(252.37 334.01) rotate(-90)"/>
  </g>
</svg>