<?xml version="1.0" encoding="UTF-8"?>
<svg id="Layer_2" data-name="Layer 2" xmlns="http://www.w3.org/2000/svg" viewBox="0 0 136 130.17">
  <defs>
    <style>
      .cls-1 {
        fill: #9a8a75;
      }

      .cls-2 {
        fill: #080e1c;
      }

      .cls-3 {
        fill: #333;
      }

      .cls-4 {
        fill: #1a1a1a;
      }
    </style>
  </defs>
  <g id="Layer_1-2" data-name="Layer 1">
    <g>
      <path class="cls-2" d="m41.16,78.97L19.16,31.06v38.04c0,3.5.38,5.68,1.13,6.55,1.04,1.18,2.67,1.76,4.91,1.76h2.02v1.55H7.4v-1.55h2.02c2.41,0,4.12-.73,5.12-2.18.62-.9.92-2.94.92-6.13V31.9c0-2.52-.28-4.34-.84-5.46-.39-.81-1.11-1.49-2.16-2.04s-2.74-.82-5.06-.82v-1.55h16.12l20.66,44.55,20.32-44.55h16.12v1.55h-1.97c-2.44,0-4.16.73-5.17,2.18-.62.9-.92,2.94-.92,6.13v37.21c0,3.5.39,5.68,1.18,6.55,1.04,1.18,2.67,1.76,4.91,1.76h1.97v1.55h-24.19v-1.55h2.02c2.44,0,4.14-.73,5.12-2.18.62-.9.92-2.94.92-6.13V31.06l-21.96,47.91h-1.39Z"/>
      <path class="cls-2" d="m115.97,49.91c3.95.84,6.9,2.18,8.86,4.03,2.71,2.58,4.07,5.73,4.07,9.45,0,2.83-.9,5.54-2.69,8.13-1.79,2.59-4.25,4.48-7.37,5.67-3.12,1.19-7.89,1.78-14.3,1.78h-26.88v-1.55h2.14c2.38,0,4.09-.76,5.12-2.27.64-.98.97-3.07.97-6.26v-36.79c0-3.53-.41-5.75-1.22-6.68-1.09-1.23-2.72-1.85-4.87-1.85h-2.14v-1.55h24.61c4.59,0,8.27.34,11.04,1.01,4.2,1.01,7.4,2.79,9.62,5.35,2.21,2.56,3.32,5.51,3.32,8.84,0,2.86-.87,5.41-2.6,7.66-1.74,2.25-4.3,3.93-7.68,5.02Zm-22-2.27c1.04.2,2.22.34,3.55.44,1.33.1,2.79.15,4.39.15,4.09,0,7.16-.44,9.22-1.32s3.63-2.23,4.72-4.05c1.09-1.82,1.64-3.81,1.64-5.96,0-3.33-1.36-6.17-4.07-8.52-2.72-2.35-6.68-3.53-11.88-3.53-2.8,0-5.32.31-7.56.92v21.88Zm0,27.21c3.25.76,6.45,1.13,9.62,1.13,5.07,0,8.93-1.14,11.59-3.42,2.66-2.28,3.99-5.1,3.99-8.46,0-2.21-.6-4.34-1.81-6.38-1.2-2.04-3.16-3.65-5.88-4.83-2.72-1.18-6.08-1.76-10.08-1.76-1.74,0-3.22.03-4.45.08-1.23.06-2.23.15-2.98.29v23.35Z"/>
    </g>
    <rect class="cls-1" y=".5" width="2" height="100"/>
    <rect class="cls-1" x="134" width="2" height="100"/>
    <g>
      <path class="cls-4" d="m33.07,117.34v-8.46h1.09l3.26,7.36h-.36l3.26-7.36h1.08v8.46h-1.13v-6.77h.4l-3.05,6.77h-.78l-3.05-6.77h.41v6.77h-1.14Z"/>
      <path class="cls-4" d="m44.62,117.34v-8.46h3.53c.91,0,1.61.19,2.11.58.49.38.74.92.74,1.62,0,.52-.16.96-.47,1.31s-.74.59-1.28.71v-.18c.62.08,1.11.3,1.45.66.34.36.52.84.52,1.43,0,.75-.25,1.33-.76,1.73-.51.4-1.22.61-2.14.61h-3.68Zm1.21-4.76h2.12c.61,0,1.06-.12,1.37-.35.3-.23.46-.57.46-1.02s-.15-.79-.46-1.02c-.3-.23-.76-.35-1.37-.35h-2.12v2.74Zm0,3.79h2.34c.57,0,1.01-.11,1.34-.32.32-.22.49-.58.49-1.09s-.16-.88-.49-1.09c-.32-.22-.77-.32-1.34-.32h-2.34v2.83Z"/>
      <path class="cls-4" d="m58.45,117.34v-8.46h2.93c.95,0,1.76.16,2.42.49.66.33,1.16.81,1.5,1.43.34.63.51,1.39.51,2.3s-.17,1.66-.51,2.29c-.34.63-.84,1.11-1.5,1.45-.66.33-1.47.5-2.42.5h-2.93Zm1.25-1.04h1.61c1.09,0,1.9-.26,2.43-.79.53-.53.8-1.33.8-2.4s-.27-1.87-.8-2.39c-.53-.52-1.34-.79-2.43-.79h-1.61v6.37Z"/>
      <path class="cls-4" d="m68.69,117.34v-8.46h5.54v1h-4.33v2.66h4.06v1.01h-4.06v2.78h4.33v1.01h-5.54Z"/>
      <path class="cls-4" d="m80.77,117.45c-.86,0-1.6-.18-2.21-.53s-1.07-.85-1.4-1.51c-.32-.65-.49-1.42-.49-2.31s.16-1.66.49-2.3c.32-.65.79-1.15,1.4-1.5s1.34-.53,2.21-.53c.6,0,1.14.09,1.61.26.47.18.88.43,1.24.77l-.43,1c-.38-.33-.76-.56-1.12-.71-.36-.14-.79-.22-1.27-.22-.91,0-1.61.28-2.09.84s-.72,1.36-.72,2.39.24,1.83.72,2.39,1.18.85,2.09.85c.48,0,.9-.07,1.27-.22.36-.14.74-.38,1.12-.72l.43,1c-.35.34-.76.59-1.24.77-.47.18-1.01.27-1.61.27Z"/>
      <path class="cls-4" d="m85.83,113.1c0-.89.16-1.66.47-2.3s.77-1.15,1.36-1.5c.6-.35,1.31-.53,2.13-.53s1.52.18,2.11.53c.59.35,1.05.85,1.37,1.5.32.65.49,1.41.49,2.29s-.16,1.66-.49,2.31c-.32.65-.78,1.16-1.38,1.51s-1.3.53-2.11.53-1.53-.18-2.12-.53c-.59-.36-1.05-.86-1.36-1.51-.32-.65-.47-1.42-.47-2.3Zm1.31,0c0,1.02.22,1.82.67,2.4.45.58,1.11.86,1.98.86s1.5-.29,1.97-.86c.46-.57.7-1.37.7-2.41s-.23-1.83-.69-2.4c-.46-.57-1.12-.85-1.97-.85s-1.53.28-1.98.85c-.45.57-.67,1.37-.67,2.4Z"/>
      <path class="cls-4" d="m96.67,117.34v-8.46h3.58c.9,0,1.6.21,2.1.64.5.43.74,1.03.74,1.79,0,.5-.11.94-.34,1.3-.22.36-.54.63-.95.82-.41.19-.89.28-1.44.28l.19-.19h.32c.33,0,.62.08.88.25.26.17.47.44.64.8l1.21,2.76h-1.37l-1.2-2.77c-.12-.33-.31-.54-.56-.64-.25-.1-.56-.14-.93-.14h-1.64v3.55h-1.25Zm1.25-4.5h2.12c.6,0,1.05-.13,1.36-.38.31-.26.46-.62.46-1.1s-.15-.86-.46-1.1-.76-.37-1.36-.37h-2.12v2.96Z"/>
    </g>
    <g>
      <path class="cls-3" d="m3.54,130.1v-5.64h1.87c.62,0,1.15.11,1.58.32.43.22.76.53.98.95.22.42.34.93.34,1.54s-.11,1.11-.34,1.54-.55.74-.98.96c-.43.22-.96.33-1.58.33h-1.87Zm.66-.57h1.16c.77,0,1.34-.19,1.71-.56.37-.38.56-.94.56-1.69s-.19-1.32-.56-1.7c-.37-.37-.94-.56-1.71-.56h-1.16v4.51Z"/>
      <path class="cls-3" d="m11.11,130.1v-5.64h3.6v.54h-2.95v1.96h2.78v.55h-2.78v2.03h2.95v.55h-3.6Z"/>
      <path class="cls-3" d="m19.85,130.17c-.57,0-1.05-.12-1.44-.35-.4-.23-.7-.57-.91-1-.21-.43-.32-.95-.32-1.54s.1-1.11.32-1.54c.21-.43.51-.76.91-1,.39-.23.87-.35,1.44-.35.4,0,.76.06,1.07.18s.59.3.82.54l-.25.53c-.26-.22-.51-.39-.76-.49-.25-.1-.54-.16-.88-.16-.65,0-1.14.2-1.47.6-.34.4-.5.96-.5,1.69s.17,1.29.5,1.69c.34.4.83.6,1.47.6.34,0,.63-.05.88-.16.25-.1.5-.27.76-.5l.25.54c-.23.23-.51.41-.82.53-.31.13-.67.19-1.07.19Z"/>
      <path class="cls-3" d="m24.09,127.27c0-.6.1-1.11.31-1.54.21-.43.5-.76.89-1,.39-.23.85-.35,1.4-.35s.99.12,1.38.35c.39.23.69.57.9,1,.21.43.32.94.32,1.53s-.11,1.11-.32,1.54-.51.77-.9,1c-.39.24-.84.36-1.37.36s-1.01-.12-1.39-.36c-.38-.24-.68-.57-.89-1s-.31-.94-.31-1.54Zm.7,0c0,.73.16,1.29.48,1.7.32.41.79.61,1.42.61s1.06-.2,1.4-.61.5-.97.5-1.7-.17-1.3-.5-1.7c-.33-.4-.8-.6-1.4-.6s-1.1.2-1.42.6c-.32.4-.48.97-.48,1.7Z"/>
      <path class="cls-3" d="m32.07,130.1v-5.64h2.3c.59,0,1.05.14,1.38.42.33.28.49.67.49,1.17,0,.33-.07.61-.22.84-.15.23-.35.41-.62.53-.26.12-.57.18-.92.18l.14-.1h.16c.22,0,.41.05.59.16.17.11.31.29.41.54l.8,1.9h-.73l-.77-1.86c-.09-.24-.23-.4-.41-.47-.18-.07-.41-.11-.68-.11h-1.26v2.44h-.66Zm.66-2.96h1.54c.43,0,.75-.09.97-.28.22-.18.33-.45.33-.8s-.11-.61-.33-.79c-.22-.18-.54-.27-.97-.27h-1.54v2.14Z"/>
      <path class="cls-3" d="m38.56,130.1l2.49-5.64h.58l2.53,5.64h-.69l-.7-1.61.3.17h-3.45l.32-.17-.69,1.61h-.68Zm2.77-4.88l-1.3,3.04-.19-.14h2.98l-.14.14-1.33-3.04h-.02Z"/>
      <path class="cls-3" d="m47.36,130.1v-5.08h-1.99v-.56h4.64v.56h-1.98v5.08h-.66Z"/>
      <path class="cls-3" d="m52.42,130.1v-5.64h.66v5.64h-.66Z"/>
      <path class="cls-3" d="m56.1,130.1v-5.64h.52l3.62,4.8h-.18v-4.8h.62v5.64h-.51l-3.62-4.8h.18v4.8h-.62Z"/>
      <path class="cls-3" d="m66.26,130.17c-.62,0-1.14-.11-1.55-.34s-.73-.56-.94-.99c-.21-.43-.31-.95-.31-1.55s.11-1.11.33-1.54c.22-.43.53-.77.94-1,.41-.23.91-.35,1.49-.35.41,0,.77.06,1.07.18.3.12.57.3.81.53l-.25.52c-.18-.15-.35-.28-.51-.37-.16-.09-.33-.16-.51-.2-.18-.05-.38-.07-.62-.07-.67,0-1.18.2-1.53.6-.35.4-.53.97-.53,1.71s.17,1.31.52,1.7c.34.39.88.59,1.6.59.27,0,.52-.02.76-.08.24-.05.48-.12.71-.22l-.14.36v-1.98h-1.44v-.52h2.01v2.62c-.23.12-.52.22-.87.3-.35.07-.7.11-1.04.11Z"/>
      <path class="cls-3" d="m76.65,130.17c-.45,0-.86-.06-1.22-.18-.36-.12-.67-.29-.94-.5l.24-.53c.19.14.38.25.56.35.19.09.39.16.61.21s.46.07.74.07c.47,0,.83-.09,1.06-.26.23-.18.34-.41.34-.7,0-.25-.08-.44-.24-.58-.16-.13-.44-.24-.84-.32l-.84-.17c-.52-.11-.9-.28-1.16-.52-.25-.24-.38-.57-.38-.98,0-.34.09-.63.26-.88s.42-.45.73-.58c.31-.14.68-.21,1.1-.21s.77.06,1.1.18c.33.12.61.29.85.52l-.23.51c-.25-.22-.51-.39-.79-.48-.27-.1-.59-.15-.93-.15-.44,0-.78.09-1.04.28-.25.19-.38.45-.38.77,0,.26.08.47.24.61.16.15.42.26.79.33l.85.17c.54.11.94.28,1.2.5s.38.54.38.94c0,.31-.08.58-.25.82-.17.24-.41.43-.72.56s-.68.2-1.1.2Z"/>
      <path class="cls-3" d="m81.39,130.1v-5.64h2.3c.59,0,1.05.14,1.37.43.32.29.48.68.48,1.19s-.16.89-.48,1.18c-.32.29-.78.44-1.37.44h-1.63v2.41h-.66Zm.66-2.96h1.57c.41,0,.72-.09.93-.28.21-.19.32-.45.32-.78s-.11-.61-.32-.79c-.21-.19-.52-.28-.93-.28h-1.57v2.14Z"/>
      <path class="cls-3" d="m88.2,130.1v-5.64h3.6v.54h-2.95v1.96h2.78v.55h-2.78v2.03h2.95v.55h-3.6Z"/>
      <path class="cls-3" d="m96.94,130.17c-.57,0-1.05-.12-1.44-.35-.4-.23-.7-.57-.91-1-.21-.43-.32-.95-.32-1.54s.1-1.11.32-1.54c.21-.43.51-.76.91-1,.39-.23.87-.35,1.44-.35.4,0,.76.06,1.07.18s.59.3.82.54l-.25.53c-.26-.22-.51-.39-.76-.49-.25-.1-.54-.16-.88-.16-.65,0-1.14.2-1.47.6-.34.4-.5.96-.5,1.69s.17,1.29.5,1.69c.34.4.83.6,1.47.6.34,0,.63-.05.88-.16.25-.1.5-.27.76-.5l.25.54c-.23.23-.51.41-.82.53-.31.13-.67.19-1.07.19Z"/>
      <path class="cls-3" d="m101.55,130.1v-5.64h.66v5.64h-.66Z"/>
      <path class="cls-3" d="m104.66,130.1l2.49-5.64h.58l2.53,5.64h-.69l-.7-1.61.3.17h-3.45l.32-.17-.69,1.61h-.68Zm2.77-4.88l-1.3,3.04-.19-.14h2.98l-.14.14-1.33-3.04h-.02Z"/>
      <path class="cls-3" d="m112.7,130.1v-5.64h.66v5.06h2.85v.58h-3.51Z"/>
      <path class="cls-3" d="m118.66,130.1v-5.64h.66v5.64h-.66Z"/>
      <path class="cls-3" d="m124.18,130.17c-.45,0-.86-.06-1.22-.18-.36-.12-.67-.29-.94-.5l.24-.53c.19.14.38.25.56.35.19.09.39.16.61.21s.46.07.74.07c.47,0,.83-.09,1.06-.26.23-.18.34-.41.34-.7,0-.25-.08-.44-.24-.58-.16-.13-.44-.24-.84-.32l-.84-.17c-.52-.11-.9-.28-1.16-.52-.25-.24-.38-.57-.38-.98,0-.34.09-.63.26-.88s.42-.45.73-.58c.31-.14.68-.21,1.1-.21s.77.06,1.1.18c.33.12.61.29.85.52l-.23.51c-.25-.22-.51-.39-.79-.48-.27-.1-.59-.15-.93-.15-.44,0-.78.09-1.04.28-.25.19-.38.45-.38.77,0,.26.08.47.24.61.16.15.42.26.79.33l.85.17c.54.11.94.28,1.2.5s.38.54.38.94c0,.31-.08.58-.25.82-.17.24-.41.43-.72.56s-.68.2-1.1.2Z"/>
      <path class="cls-3" d="m130.17,130.1v-5.08h-1.99v-.56h4.64v.56h-1.98v5.08h-.66Z"/>
    </g>
    <rect class="cls-1" x="16.25" y="102" width=".5" height="24" transform="translate(-97.5 130.5) rotate(-90)"/>
    <rect class="cls-1" x="119.53" y="101.91" width=".5" height="24" transform="translate(5.87 233.7) rotate(-90)"/>
  </g>
</svg>