<?xml version="1.0" encoding="UTF-8"?>
<svg id="Layer_2" data-name="Layer 2" xmlns="http://www.w3.org/2000/svg" viewBox="0 0 92 102.83">
  <defs>
    <style>
      .cls-1 {
        letter-spacing: -.01em;
      }

      .cls-2 {
        font-family: RedHatDisplay-SemiBold, 'Red Hat Display';
        font-size: 15px;
        font-variation-settings: 'wght' 600;
        font-weight: 600;
      }

      .cls-2, .cls-3 {
        fill: #e6e6e6;
      }

      .cls-4 {
        letter-spacing: -.07em;
      }

      .cls-5 {
        font-family: RedHatDisplay-Bold, 'Red Hat Display';
        font-size: 6px;
        font-variation-settings: 'wght' 700;
        font-weight: 700;
      }

      .cls-5, .cls-6 {
        fill: #aca194;
      }

      .cls-7 {
        letter-spacing: -.02em;
      }

      .cls-8 {
        letter-spacing: -.07em;
      }

      .cls-9 {
        letter-spacing: -.04em;
      }

      .cls-10 {
        letter-spacing: -.03em;
      }

      .cls-11 {
        letter-spacing: -.03em;
      }

      .cls-12 {
        letter-spacing: -.05em;
      }

      .cls-13 {
        letter-spacing: -.15em;
      }

      .cls-14 {
        letter-spacing: -.04em;
      }

      .cls-15 {
        letter-spacing: -.04em;
      }

      .cls-16 {
        letter-spacing: -.08em;
      }
    </style>
  </defs>
  <g id="Layer_1-2" data-name="Layer 1">
    <rect class="cls-6" width="4" height="78"/>
    <rect class="cls-6" x="88" width="4" height="78"/>
    <polygon class="cls-3" points="22 39 30 39 39.34 18 39.34 39 44.83 39 44.83 7 38 7 27 34 25 34 14 7 7 7 7 39 12.5 39 12.5 18 22 39"/>
    <path class="cls-3" d="m84,18s-1.01-2.68-3-5c-2.87-3.35-9.58-6.07-18-6h-16.1v32h16.1c8.42.07,15.13-2.65,18-6,1.99-2.32,3-5,3-5,.38-1.01,1-2.7,1-5s-.62-3.99-1-5Zm-5.95,8.32s-.7,1.88-2.09,3.52c-2,2.35-6.67,4.27-12.52,4.22h-11.2V11.55h11.2c5.85-.05,10.52,1.86,12.52,4.22,1.38,1.63,2.09,3.52,2.09,3.52.26.71.7,1.9.7,3.52s-.43,2.81-.7,3.52Z"/>
    <path class="cls-3" d="m84,50.25s-1.01-2.68-3-5c-2.87-3.35-9.58-6.07-18-6h-16.1v32h16.1c8.42.07,15.13-2.65,18-6,1.99-2.32,3-5,3-5,.38-1.01,1-2.7,1-5s-.62-3.99-1-5Zm-5.95,8.32s-.7,1.88-2.09,3.52c-2,2.35-6.67,4.27-12.52,4.22h-11.2v-22.5h11.2c5.85-.05,10.52,1.86,12.52,4.22,1.38,1.63,2.09,3.52,2.09,3.52.26.71.7,1.9.7,3.52s-.43,2.81-.7,3.52Z"/>
    <polygon class="cls-3" points="7 39.27 7 71.49 14.83 71.49 14.83 67.99 12.5 67.99 12.5 39.27 7 39.27"/>
    <polygon class="cls-3" points="44.83 39.27 44.83 71.49 37 71.49 37 67.99 39.34 67.99 39.34 39.27 44.83 39.27"/>
    <text class="cls-2" transform="translate(8.26 92.98)"><tspan class="cls-10" x="0" y="0">MB D</tspan><tspan class="cls-16" x="34.95" y="0">E</tspan><tspan class="cls-12" x="43.17" y="0">C</tspan><tspan class="cls-14" x="53.22" y="0">OR</tspan></text>
    <rect class="cls-3" y="90" width="6" height="1"/>
    <rect class="cls-3" x="86" y="90" width="6" height="1"/>
    <text class="cls-5" transform="translate(10.16 101.25)"><tspan class="cls-7" x="0" y="0">D</tspan><tspan class="cls-8" x="4.24" y="0">E</tspan><tspan class="cls-9" x="7.64" y="0">C</tspan><tspan class="cls-11" x="11.71" y="0">O</tspan><tspan class="cls-1" x="16.43" y="0">R</tspan><tspan class="cls-13" x="20.35" y="0">A</tspan><tspan class="cls-7" x="23.74" y="0">TING SP</tspan><tspan class="cls-4" x="46.28" y="0">E</tspan><tspan class="cls-11" x="49.67" y="0">CIALI</tspan><tspan class="cls-15" x="64.36" y="0">S</tspan><tspan class="cls-7" x="67.85" y="0">T</tspan></text>
  </g>
</svg>